<svg xmlns="http://www.w3.org/2000/svg" width="1920" height="1080.001" viewBox="0 0 1920 1080.001"><path d="M658,1394H-117.615c-1.257-20.453-3.763-38.134-7.661-54.055a206.95,206.95,0,0,0-8.2-26.1,179.182,179.182,0,0,0-12.134-25.12,174.563,174.563,0,0,0-26.573-34.044,237.862,237.862,0,0,0-35.808-29.634,247.028,247.028,0,0,0-41.276-22.657,196.008,196.008,0,0,0-42.976-13.114c-11.862-2.087-23.54-3.277-34.834-4.428-11.464-1.168-22.287-2.271-33.335-4.231-5.938-1.054-11.36-2.255-16.575-3.672a149.219,149.219,0,0,1-16.648-5.557c-26.558-10.663-49.271-29.758-70.26-48.4-7.262-6.453-14.419-13.309-21.34-19.938l-.007-.007-.009-.009c-7.305-7-14.859-14.232-22.582-21.042a251.33,251.33,0,0,0-24.32-19.174,56.2,56.2,0,0,0-15.513-7.5,54.685,54.685,0,0,0-15.744-2.266c-10.04,0-20.793,2.509-32.871,7.671-10.814,4.621-21.026,10.63-30.451,16.436-6.156,3.792-12.274,7.7-18.19,11.472-10.091,6.44-20.526,13.1-31.1,19.159a268.477,268.477,0,0,1-33.239,16.375,226.347,226.347,0,0,1-22.691,7.742c-7.515,2.131-15.361,3.943-23.318,5.386a295.3,295.3,0,0,1-47.935,4.513c-1.281.02-2.575.029-3.846.029a276.65,276.65,0,0,1-48.986-4.511,321.968,321.968,0,0,1-47.928-12.624,351.929,351.929,0,0,1-45.3-19.37,350.092,350.092,0,0,1-41.109-24.75c-6.844-4.8-13.788-9.937-20.5-14.908-16.806-12.439-34.181-25.3-52.637-34.9a150.613,150.613,0,0,0-28.741-11.633,119.647,119.647,0,0,0-15.3-3.272,112.37,112.37,0,0,0-16.048-1.16,115.211,115.211,0,0,0-16.985,1.278,246.941,246.941,0,0,0-65.067,19.819,208.649,208.649,0,0,0-30.972,17.493A139.365,139.365,0,0,0-1262,1075.387V314H658V1394Z" transform="translate(1262 -314)" fill="#fff"/></svg>