<svg xmlns="http://www.w3.org/2000/svg" width="79.99" height="80" viewBox="0 0 79.99 80"><path d="M677.413,172.609A23.992,23.992,0,0,0,701.4,148.623V116.639a24.007,24.007,0,0,0-23.989-24.029h-32a24.012,24.012,0,0,0-24,24.029v31.985a24,24,0,0,0,24,23.986Z" transform="translate(-621.412 -92.609)" fill="#988036"/><path d="M677.413,172.609A23.992,23.992,0,0,0,701.4,148.623V116.639a24.007,24.007,0,0,0-23.989-24.029h-32a24.012,24.012,0,0,0-24,24.029v31.985a24,24,0,0,0,24,23.986Z" transform="translate(-621.412 -92.609)" fill="none"/><path d="M679.5,173.645a22.537,22.537,0,0,0,22.522-22.588V120.938A22.574,22.574,0,0,0,679.5,98.308h-30a22.567,22.567,0,0,0-22.5,22.63v30.119a22.53,22.53,0,0,0,22.5,22.588Z" transform="translate(-624.558 -95.823)" fill="#2a2e6f"/><path d="M679.5,173.645a22.537,22.537,0,0,0,22.522-22.588V120.938A22.574,22.574,0,0,0,679.5,98.308h-30a22.567,22.567,0,0,0-22.5,22.63v30.119a22.53,22.53,0,0,0,22.5,22.588Z" transform="translate(-624.558 -95.823)" fill="none"/><path d="M661.673,135.289s-5.371,0-5.354,0A29.789,29.789,0,0,1,675.032,154.6H645.708V141.648h6.578v6.367H663.81c-3.7-4.244-11.565-7.968-18.1-7.756V128.725h15.965Z" transform="translate(-635.115 -112.979)" fill="#fff"/><path d="M661.673,135.289s-5.371,0-5.354,0A29.789,29.789,0,0,1,675.032,154.6H645.708V141.648h6.578v6.367H663.81c-3.7-4.244-11.565-7.968-18.1-7.756V128.725h15.965Z" transform="translate(-635.115 -112.979)" fill="none" stroke="#fff" stroke-width="11.277"/><path d="M731.611,132.838a30.106,30.106,0,0,0-18.8,19.325h21.015v-6.585h-9.76c2.9-3.5,8.581-6.553,11.431-6.942v13.527h6.666V124.405h-6.666v1.883h-9.277v6.564Z" transform="translate(-672.961 -110.542)" fill="#fff"/><path d="M731.611,132.838a30.106,30.106,0,0,0-18.8,19.325h21.015v-6.585h-9.76c2.9-3.5,8.581-6.553,11.431-6.942v13.527h6.666V124.405h-6.666v1.883h-9.277v6.564Z" transform="translate(-672.961 -110.542)" fill="none" stroke="#fff" stroke-width="11.277"/><path d="M690.687,116.6h12.092v15.449a28.382,28.382,0,0,1,6.477-5.258V110.257H684.206V126.8a29.792,29.792,0,0,1,6.471,5.221Z" transform="translate(-656.829 -102.563)" fill="#fff"/><path d="M690.687,116.6h12.092v15.449a28.382,28.382,0,0,1,6.477-5.258V110.257H684.206V126.8a29.792,29.792,0,0,1,6.471,5.221Z" transform="translate(-656.829 -102.563)" fill="none" stroke="#fff" stroke-width="11.277"/><path d="M645.733,193.247h25.21a.564.564,0,0,1,0,1.128h-25.21v2.606H668.87a2.392,2.392,0,0,1,2.641,2.749v20.686h2.968V194.725a4.014,4.014,0,0,0-2.968-4.1H645.733Z" transform="translate(-635.129 -147.888)" fill="#988036"/><path d="M645.733,193.247h25.21a.564.564,0,0,1,0,1.128h-25.21v2.606H668.87a2.392,2.392,0,0,1,2.641,2.749v20.686h2.968V194.725a4.014,4.014,0,0,0-2.968-4.1H645.733Z" transform="translate(-635.129 -147.888)" fill="none" stroke="#fff" stroke-width="11.277"/><path d="M645.733,210.449h21.083a.568.568,0,0,1,0,1.134H645.733v2.635h19.015a2.4,2.4,0,0,1,2.635,2.775V230.13h2.97V211.369c0-2.295.348-3.526-2.615-3.526H645.733Z" transform="translate(-635.129 -157.602)" fill="#988036"/><path d="M645.733,210.449h21.083a.568.568,0,0,1,0,1.134H645.733v2.635h19.015a2.4,2.4,0,0,1,2.635,2.775V230.13h2.97V211.369c0-2.295.348-3.526-2.615-3.526H645.733Z" transform="translate(-635.129 -157.602)" fill="none" stroke="#fff" stroke-width="11.277"/><path d="M645.733,227.642H662.67a.566.566,0,1,1,0,1.133H645.733v2.638h14.91a2.4,2.4,0,0,1,2.637,2.771v5.644h2.966V228.562c0-2.243.348-3.525-2.6-3.525H645.733Z" transform="translate(-635.129 -167.3)" fill="#988036"/><path d="M645.733,227.642H662.67a.566.566,0,1,1,0,1.133H645.733v2.638h14.91a2.4,2.4,0,0,1,2.637,2.771v5.644h2.966V228.562c0-2.243.348-3.525-2.6-3.525H645.733Z" transform="translate(-635.129 -167.3)" fill="none" stroke="#fff" stroke-width="11.277"/><path d="M742.945,190.62H717.17a4.018,4.018,0,0,0-2.972,4.1v25.691h2.972V199.73a2.388,2.388,0,0,1,2.627-2.749h23.147v-2.606h-25.21a.564.564,0,0,1,0-1.128h25.21Z" transform="translate(-673.744 -147.888)" fill="#988036"/><path d="M742.945,190.62H717.17a4.018,4.018,0,0,0-2.972,4.1v25.691h2.972V199.73a2.388,2.388,0,0,1,2.627-2.749h23.147v-2.606h-25.21a.564.564,0,0,1,0-1.128h25.21Z" transform="translate(-673.744 -147.888)" fill="none" stroke="#fff" stroke-width="11.277"/><path d="M748.268,207.843H726.257c-2.947,0-2.608,1.231-2.608,3.526V230.13h2.964V216.994a2.407,2.407,0,0,1,2.645-2.775h19.011v-2.635h-21.1a.568.568,0,0,1,0-1.134h21.1Z" transform="translate(-679.068 -157.602)" fill="#988036"/><path d="M748.268,207.843H726.257c-2.947,0-2.608,1.231-2.608,3.526V230.13h2.964V216.994a2.407,2.407,0,0,1,2.645-2.775h19.011v-2.635h-21.1a.568.568,0,0,1,0-1.134h21.1Z" transform="translate(-679.068 -157.602)" fill="none" stroke="#fff" stroke-width="11.277"/><path d="M753.579,225.037H735.667c-2.937,0-2.6,1.282-2.6,3.525v11.266h2.963v-5.644a2.4,2.4,0,0,1,2.641-2.771h14.91v-2.638H736.633a.566.566,0,1,1,0-1.133h16.946Z" transform="translate(-684.379 -167.3)" fill="#988036"/><path d="M753.579,225.037H735.667c-2.937,0-2.6,1.282-2.6,3.525v11.266h2.963v-5.644a2.4,2.4,0,0,1,2.641-2.771h14.91v-2.638H736.633a.566.566,0,1,1,0-1.133h16.946Z" transform="translate(-684.379 -167.3)" fill="none" stroke="#fff" stroke-width="11.277"/><path d="M677.413,172.609A23.992,23.992,0,0,0,701.4,148.623V116.639a24.007,24.007,0,0,0-23.989-24.029h-32a24.012,24.012,0,0,0-24,24.029v31.985a24,24,0,0,0,24,23.986Z" transform="translate(-621.412 -92.609)" fill="#c59c0e"/><path d="M679.5,173.645a22.537,22.537,0,0,0,22.522-22.588V120.938A22.574,22.574,0,0,0,679.5,98.308h-30a22.567,22.567,0,0,0-22.5,22.63v30.119a22.53,22.53,0,0,0,22.5,22.588Z" transform="translate(-624.558 -95.823)" fill="#2a2a7e"/><path d="M661.673,135.289s-5.371,0-5.354,0A29.789,29.789,0,0,1,675.032,154.6H645.708V141.648h6.578v6.367H663.81c-3.7-4.244-11.565-7.968-18.1-7.756V128.725h15.965Z" transform="translate(-635.115 -112.979)" fill="#fff"/><path d="M731.611,132.838a30.106,30.106,0,0,0-18.8,19.325h21.015v-6.585h-9.76c2.9-3.5,8.581-6.553,11.431-6.942v13.527h6.666V124.405h-6.666v1.883h-9.277v6.564Z" transform="translate(-672.961 -110.542)" fill="#fff"/><path d="M690.687,116.6h12.092v15.449a28.382,28.382,0,0,1,6.477-5.258V110.257H684.206V126.8a29.792,29.792,0,0,1,6.471,5.221Z" transform="translate(-656.829 -102.563)" fill="#fff"/><path d="M645.733,193.247h25.21a.564.564,0,0,1,0,1.128h-25.21v2.606H668.87a2.392,2.392,0,0,1,2.641,2.749v20.686h2.968V194.725a4.014,4.014,0,0,0-2.968-4.1H645.733Z" transform="translate(-635.129 -147.888)" fill="#c59c0e"/><path d="M645.733,210.449h21.083a.568.568,0,0,1,0,1.134H645.733v2.635h19.015a2.4,2.4,0,0,1,2.635,2.775V230.13h2.97V211.369c0-2.295.348-3.526-2.615-3.526H645.733Z" transform="translate(-635.129 -157.602)" fill="#c59c0e"/><path d="M645.733,227.642H662.67a.566.566,0,1,1,0,1.133H645.733v2.638h14.91a2.4,2.4,0,0,1,2.637,2.771v5.644h2.966V228.562c0-2.243.348-3.525-2.6-3.525H645.733Z" transform="translate(-635.129 -167.3)" fill="#c59c0e"/><path d="M742.945,190.62H717.17a4.018,4.018,0,0,0-2.972,4.1v25.691h2.972V199.73a2.388,2.388,0,0,1,2.627-2.749h23.147v-2.606h-25.21a.564.564,0,0,1,0-1.128h25.21Z" transform="translate(-673.744 -147.888)" fill="#c59c0e"/><path d="M748.268,207.843H726.257c-2.947,0-2.608,1.231-2.608,3.526V230.13h2.964V216.994a2.407,2.407,0,0,1,2.645-2.775h19.011v-2.635h-21.1a.568.568,0,0,1,0-1.134h21.1Z" transform="translate(-679.068 -157.602)" fill="#c59c0e"/><path d="M753.579,225.037H735.667c-2.937,0-2.6,1.282-2.6,3.525v11.266h2.963v-5.644a2.4,2.4,0,0,1,2.641-2.771h14.91v-2.638H736.633a.566.566,0,1,1,0-1.133h16.946Z" transform="translate(-684.379 -167.3)" fill="#c59c0e"/></svg>