<svg xmlns="http://www.w3.org/2000/svg" width="1420.722" height="236.869" viewBox="0 0 1420.722 236.869"><path d="M1636.769,321.116c-49.637,4.094-99.457,14.681-149.237,24.448-60.178,11.81-114.468,18.806-178.741,19.153-117.329.642-206.93-28.811-303.766-60.65-34.562-11.363-83-25.415-124.371-26.447-58.266-1.457-113.217,13.688-172.351,8.626a346.066,346.066,0,0,1-100.772-23.927c-27.623-11.107-55.8-25.09-88.781-31.288-.247-.043-.486-.078-.733-.126V467.774H1937.252c10.533,0-38.156-65.819-43.542-70.7-25.854-23.4-60.823-44.568-103.075-59.479C1739.716,319.62,1688.342,316.861,1636.769,321.116Z" transform="translate(-518.018 -230.905)" fill="#f8f9fa"/></svg>